<svg width="56" height="56" viewBox="0 0 56 56" fill="none" xmlns="http://www.w3.org/2000/svg">
<g id="vuesax/twotone/verify">
<g id="vuesax/twotone/verify_2">
<g id="verify">
<path id="Vector" d="M19.5553 28.0002L25.1787 33.6469L36.4487 22.3535" stroke="url(#paint0_linear_267_387)" stroke-width="3.5" stroke-linecap="round"/>
<path id="Vector_2" d="M30.9653 5.71707L34.652 8.8904C35.352 9.49707 36.6587 9.98707 37.592 9.98707H41.5587C44.032 9.98707 46.062 12.0171 46.062 14.4904V18.4571C46.062 19.3671 46.552 20.6971 47.1587 21.3971L50.332 25.0837C51.7087 26.6937 51.7087 29.3304 50.332 30.9637L47.1587 34.6504C46.552 35.3504 46.062 36.6571 46.062 37.5904V41.5571C46.062 44.0304 44.032 46.0604 41.5587 46.0604H37.592C36.682 46.0604 35.352 46.5504 34.652 47.1571L30.9653 50.3304C29.3553 51.7071 26.7187 51.7071 25.0853 50.3304L21.3987 47.1571C20.6987 46.5504 19.392 46.0604 18.4587 46.0604H14.422C11.9487 46.0604 9.91866 44.0304 9.91866 41.5571V37.5671C9.91866 36.6571 9.42866 35.3504 8.84533 34.6504L5.69533 30.9404C4.342 29.3304 4.342 26.7171 5.69533 25.1071L8.84533 21.3971C9.42866 20.6971 9.91866 19.3904 9.91866 18.4804V14.4671C9.91866 11.9937 11.9487 9.96374 14.422 9.96374H18.4587C19.3687 9.96374 20.6987 9.47374 21.3987 8.86707L25.0853 5.71707C26.6953 4.3404 29.332 4.3404 30.9653 5.71707Z" stroke="url(#paint1_linear_267_387)" stroke-width="3.5"/>
</g>
</g>
</g>
<defs>
<linearGradient id="paint0_linear_267_387" x1="19.5553" y1="22.3535" x2="38.1289" y2="27.177" gradientUnits="userSpaceOnUse">
<stop stop-color="#FC5834"/>
<stop offset="1" stop-color="#FAB438"/>
</linearGradient>
<linearGradient id="paint1_linear_267_387" x1="4.68033" y1="4.68457" x2="57.8659" y2="13.9193" gradientUnits="userSpaceOnUse">
<stop stop-color="#FC5834"/>
<stop offset="1" stop-color="#FAB438"/>
</linearGradient>
</defs>
</svg>
