<svg width="56" height="56" viewBox="0 0 56 56" fill="none" xmlns="http://www.w3.org/2000/svg">
<g id="vuesax/twotone/chart">
<g id="vuesax/twotone/chart_2">
<g id="chart">
<path id="Vector" d="M9.38002 13.9303C6.41669 17.8503 4.66669 22.727 4.66669 28.0003C4.66669 40.8803 15.12 51.3337 28 51.3337C40.88 51.3337 51.3334 40.8803 51.3334 28.0003C51.3334 15.1203 40.88 4.66699 28 4.66699" stroke="url(#paint0_linear_267_360)" stroke-width="3.5" stroke-linecap="round"/>
<path id="Vector_2" d="M11.6667 28.0003C11.6667 37.0303 18.97 44.3337 28 44.3337C37.03 44.3337 44.3334 37.0303 44.3334 28.0003C44.3334 18.9703 37.03 11.667 28 11.667" stroke="url(#paint1_linear_267_360)" stroke-width="3.5" stroke-linecap="round"/>
<path id="Vector_3" d="M28 37.3337C33.1567 37.3337 37.3333 33.157 37.3333 28.0003C37.3333 22.8437 33.1567 18.667 28 18.667" stroke="url(#paint2_linear_267_360)" stroke-width="3.5" stroke-linecap="round"/>
</g>
</g>
</g>
<defs>
<linearGradient id="paint0_linear_267_360" x1="4.66669" y1="4.66699" x2="57.8327" y2="13.8972" gradientUnits="userSpaceOnUse">
<stop stop-color="#FC5834"/>
<stop offset="1" stop-color="#FAB438"/>
</linearGradient>
<linearGradient id="paint1_linear_267_360" x1="11.6667" y1="11.667" x2="48.8829" y2="18.1281" gradientUnits="userSpaceOnUse">
<stop stop-color="#FC5834"/>
<stop offset="1" stop-color="#FAB438"/>
</linearGradient>
<linearGradient id="paint2_linear_267_360" x1="28" y1="18.667" x2="38.8718" y2="19.6107" gradientUnits="userSpaceOnUse">
<stop stop-color="#FC5834"/>
<stop offset="1" stop-color="#FAB438"/>
</linearGradient>
</defs>
</svg>
