<svg width="187" height="92" viewBox="0 0 187 92" fill="none" xmlns="http://www.w3.org/2000/svg">
<g id="Frame 100">
<rect width="187" height="92" rx="16" fill="#FAF8F6"/>
<g id="Group">
<path id="Vector" d="M58.2485 45.711L57.0043 50.0252C56.8898 50.4226 56.4733 50.7444 56.074 50.7444H52.6521C51.7462 50.7444 51.2225 50.0143 51.4823 49.1135L52.4636 45.711C52.5781 45.3142 52.9946 44.9923 53.3939 44.9923H57.7326C58.1319 44.9918 58.3631 45.3137 58.2485 45.711ZM55.2447 53.6201H51.8228C50.9169 53.6201 49.9725 54.3502 49.7128 55.251L48.7314 58.6535C48.6169 59.0504 48.848 59.3722 49.2473 59.3722H53.586C53.9853 59.3722 54.4018 59.0504 54.5163 58.6535L55.7606 54.3394C55.8746 53.942 55.644 53.6201 55.2447 53.6201ZM63.6909 50.7361H60.269C59.8697 50.7361 59.4532 51.0579 59.3387 51.4553L58.0944 55.7695C57.9799 56.1663 58.2111 56.4882 58.6104 56.4882H62.9485C63.3478 56.4882 63.7643 56.1663 63.8794 55.7695L64.8607 52.367C65.1205 51.4662 64.5968 50.7361 63.6909 50.7361ZM52.7567 62.248H48.418C48.0187 62.248 47.6022 62.5698 47.4877 62.9672L46.244 67.2813C46.1294 67.6782 46.3606 68 46.7594 68H51.0981C51.4974 68 51.9139 67.6782 52.0284 67.2813L53.2721 62.9672C53.3866 62.5698 53.156 62.248 52.7567 62.248ZM46.4798 50.7439C47.3857 50.7439 48.3306 50.0138 48.5898 49.113L49.5712 45.7105C49.6857 45.3137 49.4551 44.9918 49.0552 44.9918H44.7165C44.3172 44.9918 43.9008 45.3137 43.7862 45.7105L42.542 50.0247C42.4275 50.422 42.6586 50.7439 43.0579 50.7439H46.4798ZM45.6505 53.6201H42.2286C41.8293 53.6201 41.4128 53.942 41.2983 54.3388L40.054 58.653C39.9395 59.0498 40.1706 59.3717 40.5699 59.3717H44.9086C45.3079 59.3717 45.7244 59.0498 45.839 58.653L46.8203 55.2505C47.0801 54.3502 46.5563 53.6201 45.6505 53.6201ZM75.773 42.1078H71.4343C71.035 42.1078 70.6186 42.4296 70.5035 42.8265L69.5222 46.229C69.2624 47.1298 69.7861 47.8598 70.692 47.8598H74.1139C74.5132 47.8598 74.9297 47.538 75.0442 47.1406L76.2879 42.8265C76.4035 42.4296 76.1723 42.1078 75.773 42.1078ZM72.0752 33.7904C71.3229 33.7904 70.5899 33.8722 69.8829 34.0238C67.3013 28.1248 61.3883 24 54.5054 24C45.247 24 37.742 31.4631 37.742 40.6689C37.742 41.1635 37.7649 41.653 37.8076 42.1373C32.4314 42.515 28.1874 46.9683 28.1874 52.4099C28.1874 54.032 28.5654 55.5661 29.237 56.931C29.226 56.7381 29.2193 56.544 29.2193 56.3484C29.2193 50.971 33.3633 46.558 38.6489 46.0898C38.9556 46.0624 39.2658 46.0463 39.5798 46.0463C39.5798 46.0453 39.5798 46.0442 39.5798 46.0442C39.5798 44.7254 39.7344 43.4437 40.0249 42.2144C41.7652 34.8542 48.4102 29.3743 56.3437 29.3743C61.0759 29.3743 65.3495 31.325 68.3982 34.461C69.1734 35.2583 69.8699 36.1327 70.4738 37.0708C70.6003 37.0377 70.7284 37.0087 70.8565 36.9808C71.5811 36.8209 72.3339 36.734 73.107 36.734C77.074 36.734 80.5183 38.9516 82.2592 42.2071C81.3685 37.4185 77.1495 33.7904 72.0752 33.7904ZM64.5202 47.8598C65.4261 47.8598 66.371 47.1298 66.6307 46.229L67.6121 42.8265C67.7266 42.4296 67.4955 42.1078 67.0962 42.1078H62.7575C62.3582 42.1078 61.9417 42.4296 61.8272 42.8265L60.5834 47.1406C60.4689 47.538 60.7001 47.8598 61.0988 47.8598H64.5202ZM70.7966 59.3639H66.4579C66.0586 59.3639 65.6421 59.6857 65.5276 60.0831L64.2839 64.3973C64.1693 64.7941 64.4 65.1165 64.7993 65.1165H69.138C69.5373 65.1165 69.9538 64.7946 70.0683 64.3973L71.3125 60.0831C71.427 59.6857 71.1959 59.3639 70.7966 59.3639ZM73.2851 50.7361H69.8632C68.9573 50.7361 68.0124 51.4662 67.7526 52.367L66.7713 55.7695C66.6568 56.1663 66.8879 56.4882 67.2872 56.4882H71.6254C72.0247 56.4882 72.4412 56.1663 72.5557 55.7695L73.8 51.4553C73.915 51.0579 73.6844 50.7361 73.2851 50.7361Z" fill="url(#paint0_linear_446_7056)"/>
<g id="Group_2">
<g id="Group_3">
<path id="Vector_2" d="M93.3617 54.9299L93.9068 55.0303L94.0041 53.4941L93.5757 53.4155C88.5316 52.481 85.8099 54.7038 85.8099 59.777C85.8099 61.8922 86.2565 63.4377 87.1744 64.5041C88.1016 65.5803 89.5124 66.1261 91.3673 66.1261C92.0097 66.1261 92.7209 66.0615 93.482 65.9331L93.9172 65.8581L93.8214 64.3338L93.2899 64.414C92.5996 64.5191 91.9712 64.5729 91.4199 64.5729C88.5285 64.5729 87.3493 63.1836 87.3493 59.777C87.3509 55.5891 89.2073 54.1548 93.3617 54.9299Z" fill="#07203A"/>
<path id="Vector_3" d="M104.993 52.9053H103.453V66.3031H104.993V52.9053Z" fill="#07203A"/>
<path id="Vector_4" d="M119.985 56.4346C118.238 56.3632 116.833 57.0757 116.259 58.3604C115.578 59.9794 115.578 62.8577 116.259 64.3939C116.754 65.5746 117.825 66.2053 119.442 66.2674C119.52 66.2705 119.599 66.2726 119.677 66.2726C121.357 66.2726 122.629 65.5653 123.163 64.3359C123.947 62.6006 123.778 59.8676 123.168 58.3257C122.675 57.1512 121.574 56.4967 119.985 56.4346ZM117.687 63.7725L117.65 63.6949C117.159 62.3455 117.171 60.2065 117.68 58.9792C118.066 58.1762 119.1 57.9195 119.943 57.9651C120.906 58.0096 121.477 58.3164 121.74 58.9306L121.773 59.0051C122.275 60.3886 122.265 62.4795 121.747 63.7032C121.43 64.3541 120.653 64.7421 119.667 64.7421L119.519 64.74V64.7395C118.558 64.6935 117.941 64.3685 117.687 63.7725Z" fill="#07203A"/>
<path id="Vector_5" d="M139.951 63.8397C139.21 64.1496 138.023 64.6339 137.015 64.6339C136.349 64.6339 135.733 64.4445 135.733 63.0646V56.3311H134.193V63.0646C134.193 65.0639 135.195 66.1654 137.015 66.1654C138.012 66.1654 139.069 65.8374 139.951 65.5006V66.3729H141.491V56.3311H139.951V63.8397Z" fill="#07203A"/>
<path id="Vector_6" d="M157.122 52.9912V56.4589C157.104 56.4558 157.085 56.4537 157.066 56.4511L156.494 56.3839C156.095 56.3404 155.681 56.2954 155.231 56.2954C154.258 56.2954 153.54 56.4915 152.967 56.9147C151.985 57.6593 151.399 59.2601 151.399 61.1958C151.399 62.585 151.757 64.4963 152.795 65.334C153.528 65.8385 154.471 66.0951 155.596 66.0951C156.071 66.0951 156.583 66.0615 157.122 65.9958V66.0605H158.663V52.9912H157.122ZM157.122 58.0101V64.4394C156.651 64.5036 156.096 64.5641 155.596 64.5641C154.742 64.5641 154.121 64.4099 153.694 64.0876C153.33 63.8242 152.94 62.8065 152.94 61.1958C152.94 60.4905 153.032 58.7841 153.888 58.1627L153.894 58.1591C154.19 57.9356 154.627 57.8269 155.231 57.8269C155.578 57.8269 155.964 57.8693 156.358 57.9133L156.617 57.9413C156.8 57.9723 156.966 57.9946 157.122 58.0101Z" fill="#07203A"/>
</g>
<g id="Group_4">
<g id="Group_5">
<path id="Vector_7" d="M157.072 26.2969H138.823V28.8275H157.072V26.2969Z" fill="#09213C"/>
<path id="Vector_8" d="M138.52 47.8172L140.77 36.5687H137.084V34.0381H158.813V36.5687H143.31L141.566 45.2866H153.289C154.147 45.2861 154.845 44.5922 154.845 43.7395V39.6618H157.39V43.7395C157.39 45.9877 155.55 47.8172 153.289 47.8172H138.52Z" fill="#09213C"/>
</g>
<g id="Group_6">
<path id="Vector_9" d="M106.744 47.8148C104.501 47.8148 102.662 45.9997 102.645 43.7687L102.643 43.7423L102.645 43.705V32.7002H102.638C102.566 31.7192 101.739 30.9426 100.735 30.9426H94.6504L94.6285 31.0569C93.2255 38.4295 91.2602 43.2642 88.0569 47.225L87.6264 47.7568L85.6622 46.1534L86.0875 45.6313C88.9295 42.1461 90.7026 37.8029 92.0172 31.1097L92.05 30.9421H86.3796V28.4114H92.4998L92.5284 28.25L92.884 25.6221H95.4401C95.3813 26.1307 95.1944 27.7315 95.1163 28.2029L95.0814 28.4114H100.734C103.172 28.4114 105.169 30.3833 105.186 32.8078L105.188 32.842L105.186 32.8736V43.8597L105.194 43.8608C105.254 44.6017 105.846 45.2003 106.588 45.2748V45.2826L106.729 45.2836H108.016V47.8143H106.744V47.8148Z" fill="#09213C"/>
</g>
<path id="Vector_10" d="M133.392 47.8153V25.6221H130.865V47.8153H133.392Z" fill="#09213C"/>
<path id="Vector_11" d="M125.547 47.0719V26.3574H123.02V47.0719H125.547Z" fill="#09213C"/>
<path id="Vector_12" d="M121.565 38.6355V30.5381H119.038V38.6355H121.565Z" fill="#09213C"/>
<path id="Vector_13" d="M113.921 38.6355V30.5381H111.394V38.6355H113.921Z" fill="#09213C"/>
<path id="Vector_14" d="M111.486 45.896L112.018 45.4242C113.835 43.8078 114.628 42.3414 114.945 40.0136L114.963 39.8827C115.065 39.0683 115.116 38.1028 115.116 36.9288V25.8164H117.646V36.9288C117.646 41.4846 117.032 44.336 113.68 47.2811L113.149 47.7484L111.486 45.896Z" fill="#09213C"/>
<path id="Vector_15" d="M129.497 38.6355V30.5381H126.969V38.6355H129.497Z" fill="#09213C"/>
</g>
</g>
</g>
</g>
<defs>
<linearGradient id="paint0_linear_446_7056" x1="28.1871" y1="45.9999" x2="82.2597" y2="45.9999" gradientUnits="userSpaceOnUse">
<stop stop-color="#3B82C5"/>
<stop offset="1" stop-color="#2DB3E9"/>
</linearGradient>
</defs>
</svg>
