<svg width="80" height="80" viewBox="0 0 80 80" fill="none" xmlns="http://www.w3.org/2000/svg">
<g id="Group 70">
<circle id="Ellipse 2" r="39.5" transform="matrix(-1 0 0 1 40 40)" stroke="#120400"/>
<g id="vuesax/twotone/arrow-right">
<g id="vuesax/twotone/arrow-right_2">
<g id="arrow-right">
<path id="Union" fill-rule="evenodd" clip-rule="evenodd" d="M35.56 30.099C35.9993 29.6597 36.7116 29.6597 37.151 30.099C37.5903 30.5384 37.5903 31.2507 37.151 31.69L29.966 38.875H52.7501C53.3714 38.875 53.8751 39.3787 53.8751 40C53.8751 40.6213 53.3714 41.125 52.7501 41.125H29.9669L37.151 48.309C37.5903 48.7484 37.5903 49.4607 37.151 49.9C36.7116 50.3394 35.9993 50.3394 35.56 49.9L26.455 40.795C26.244 40.584 26.1255 40.2979 26.1255 39.9995C26.1255 39.7012 26.244 39.415 26.455 39.204L35.56 30.099Z" fill="#120400"/>
</g>
</g>
</g>
</g>
</svg>
