<svg width="180" height="44" viewBox="0 0 180 44" fill="none" xmlns="http://www.w3.org/2000/svg">
<g id="logo">
<g id="logo-&#230;&#156;&#137;&#232;&#137;&#178;">
<path id="Subtract" fill-rule="evenodd" clip-rule="evenodd" d="M39.2907 27.2281C39.3774 27.2747 39.4307 27.3214 39.4307 27.3614C39.4707 27.5281 39.1774 27.6547 39.1774 27.6547C39.1774 27.6547 39.2107 27.7081 39.1441 27.7681C39.1217 27.7866 39.097 27.8023 39.0707 27.8147L38.944 27.8614L38.7507 27.9014H38.484H38.1307H37.904H37.0707C35.9907 27.8414 34.3574 27.6747 31.9107 27.3014C31.9107 27.3014 29.5174 27.0147 28.3507 28.2681C26.8639 29.3392 25.3046 30.3059 23.684 31.1614C22.2637 31.8734 20.7206 32.3079 19.1374 32.4414C18.8441 32.4814 18.5441 32.5014 18.2374 32.5014C17.5809 32.5222 16.9238 32.4977 16.2707 32.4281C15.9491 32.3909 15.5414 32.3194 15.2712 32.272C15.2502 32.2683 15.23 32.2648 15.2107 32.2614C14.9441 32.2147 14.6774 32.1547 14.3974 32.0814C13.8243 31.9346 13.2609 31.7521 12.7107 31.5347C11.7812 31.1767 10.8882 30.7302 10.0441 30.2014C9.41306 29.7973 8.80952 29.3519 8.23739 28.8681C6.26284 27.3044 4.98189 25.0275 4.67073 22.5281C4.63073 22.337 4.61072 22.1436 4.61072 21.9481C4.52927 20.6887 4.63259 19.4242 4.91739 18.1947C4.95072 18.0347 4.99072 17.8814 5.03072 17.7281C5.14405 17.2814 5.27072 16.868 5.39739 16.5014C5.60248 15.8906 5.85204 15.2957 6.14405 14.7214V14.668C6.23 14.4197 6.29905 14.1658 6.35072 13.9081C6.39072 13.7214 6.45739 13.4081 6.45739 13.2414V12.7147V12.208C6.23065 12.0355 5.98175 11.8943 5.71739 11.788C5.15135 11.573 4.55538 11.447 3.95072 11.4147H3.15072L2.23739 11.4547C1.91072 11.4814 1.56405 11.5214 1.19739 11.5681L3.25739 10.4947L5.31072 9.42138V9.26806C5.34109 9.08166 5.38115 8.89695 5.43072 8.71471C5.50587 8.45071 5.59943 8.19232 5.71072 7.9414C6.02206 7.26103 6.47691 6.65606 7.04406 6.16804C7.59589 5.68562 8.24005 5.32046 8.93739 5.09472C9.52854 4.89416 10.142 4.76654 10.7641 4.71471C11.1318 4.67821 11.5012 4.66262 11.8707 4.66804C12.2872 4.66821 12.7033 4.69049 13.1174 4.73473H13.1774C14.567 4.83913 15.8632 5.47407 16.7974 6.50805C17.3571 7.10159 17.8245 7.77576 18.184 8.50805C18.6666 9.496 19.0184 10.5426 19.2307 11.6214V11.668V11.7947C19.2641 11.848 19.2641 11.9081 19.2641 11.9747V12.0214C19.2686 12.0488 19.2755 12.0762 19.2827 12.1044C19.2963 12.1586 19.3107 12.2157 19.3107 12.2814C19.3159 12.315 19.3261 12.3506 19.3366 12.3874C19.3532 12.4456 19.3707 12.5068 19.3707 12.5681V12.6414C19.3841 12.6896 19.3964 12.7378 19.409 12.7869C19.4276 12.8599 19.4468 12.9349 19.4707 13.0147V13.088C19.4974 13.2014 19.5374 13.328 19.5774 13.4547C19.5744 13.488 19.5744 13.5215 19.5774 13.5547L19.724 14.0281V14.0614C19.724 14.07 19.7205 14.0717 19.7169 14.0734C19.7094 14.0768 19.7015 14.0805 19.724 14.1481C19.7574 14.2481 19.7907 14.3481 19.8307 14.4481C19.8444 14.5005 19.8623 14.5518 19.8841 14.6014L20.0041 14.9214L20.0641 15.0681C20.1017 15.167 20.1427 15.2658 20.1847 15.3671C20.2022 15.4092 20.2198 15.4516 20.2374 15.4947C20.2399 15.5146 20.2399 15.5348 20.2374 15.5547L20.2375 15.555C20.3108 15.7216 20.3841 15.8882 20.464 16.0547L20.5307 16.2014L20.7107 16.5747L20.8041 16.7614L20.9974 17.128L21.0974 17.3081C21.1707 17.4481 21.2507 17.5947 21.3374 17.7347L21.4107 17.8614C21.5174 18.0481 21.6307 18.2347 21.7507 18.4214L21.8374 18.5614L22.1241 18.9947L22.2641 19.1881L22.5374 19.5747L22.6907 19.7814C22.7907 19.9214 22.9641 20.1414 23.0107 20.1947C23.0436 20.2323 23.0732 20.2732 23.1017 20.3127C23.1137 20.3293 23.1256 20.3456 23.1374 20.3614L23.6241 20.9347L23.7107 21.0347L24.1441 21.5147L24.3307 21.7014L24.7107 22.088L24.9241 22.288L25.3374 22.6814L25.5374 22.8614L26.2041 23.4147C26.4176 23.5884 26.6402 23.7509 26.8707 23.9014C27.0707 24.0547 27.304 24.1947 27.5374 24.328H27.5041C26.2241 24.8037 24.8696 25.0476 23.5041 25.048C20.7527 25.0515 18.094 24.0539 16.0241 22.2414C17.6383 24.0958 19.809 25.3782 22.2121 25.8973C24.6152 26.4164 27.1217 26.1442 29.3574 25.1214L30.0241 25.3414L30.1707 25.3881L30.7907 25.5814L31.0841 25.668L31.6441 25.828L32.0707 25.9414L32.5774 26.0747L33.1107 26.2014L33.5641 26.3081L34.1774 26.4281L34.5907 26.5147L35.2974 26.6214L35.6307 26.6747L36.6707 26.7947C37.2107 26.8414 37.6507 26.8881 38.0041 26.9414C38.4443 26.9756 38.8776 27.0721 39.2907 27.2281ZM12.0421 11.2618C11.8606 11.1011 11.6445 10.9843 11.4107 10.9205C11.1773 10.8599 10.933 10.8543 10.697 10.904C10.461 10.9538 10.2398 11.0575 10.0507 11.2072C9.91809 10.8905 9.89463 10.5386 9.98401 10.2072C10.0477 9.96656 10.1678 9.74462 10.3344 9.55969C10.501 9.37476 10.7092 9.23218 10.9419 9.14376C11.1745 9.05533 11.4249 9.02362 11.6723 9.05123C11.9196 9.07884 12.1568 9.16495 12.3643 9.30249C12.5717 9.44003 12.7434 9.62502 12.8651 9.84212C12.9868 10.0592 13.055 10.3022 13.0641 10.5509C13.0732 10.7997 13.0229 11.047 12.9174 11.2724C12.8119 11.4978 12.6542 11.6948 12.4574 11.8472C12.3657 11.6228 12.2236 11.4225 12.0421 11.2618Z" fill="url(#paint0_linear_250_1072)"/>
<path id="Union" fill-rule="evenodd" clip-rule="evenodd" d="M7.64424 10.9282C7.50424 12.1549 5.50424 12.2216 4.0309 12.1549C2.90397 12.1367 1.79167 11.8965 0.757568 11.4483C0.730532 11.4362 0.707569 11.4165 0.691457 11.3917C0.675345 11.3668 0.666779 11.3379 0.666779 11.3082C0.666779 11.2786 0.675345 11.2497 0.691457 11.2248C0.707569 11.2 0.730532 11.1803 0.757568 11.1682C1.61815 10.8622 2.55074 10.4637 3.27994 10.152C3.56753 10.0291 3.82348 9.91975 4.0309 9.8349C5.53757 9.20156 7.64424 8.92824 7.64424 10.9282ZM12.2978 10.8867C11.9759 10.5134 11.9133 10.4407 11.5976 10.3486C11.2814 10.2556 11.144 10.2952 10.751 10.4085L10.6576 10.4353C10.7118 10.1969 10.8575 9.98932 11.0632 9.85717C11.2689 9.72502 11.5182 9.67887 11.7576 9.72863C12.1976 9.84863 12.4109 10.3086 12.3109 10.902L12.2978 10.8867ZM14.0709 30.642V36.4087C14.0703 36.4892 14.0412 36.5668 13.9887 36.6279C13.9362 36.6889 13.8637 36.7294 13.7842 36.742C13.7842 36.742 6.41089 37.7353 6.41089 37.902C6.41089 38.0687 14.6709 37.902 14.6709 37.902C14.7133 37.902 14.754 37.8851 14.784 37.8551C14.814 37.8251 14.8309 37.7844 14.8309 37.742V30.642H14.0709ZM16.0375 37.7759C16.0237 37.7416 16.0169 37.7049 16.0175 37.6679L15.9975 31.1813H16.7241V37.3346C16.7254 37.3909 16.744 37.4455 16.7774 37.4908C16.8108 37.5362 16.8574 37.5701 16.9108 37.5879L22.3242 39.4746C22.3401 39.4746 22.3553 39.4809 22.3666 39.4922C22.3778 39.5034 22.3841 39.5187 22.3841 39.5346C22.3841 39.5505 22.3778 39.5658 22.3666 39.577C22.3553 39.5883 22.3401 39.5946 22.3242 39.5946H17.9308C17.8636 39.5943 17.7991 39.5681 17.7508 39.5213L16.0975 37.8679C16.0716 37.8415 16.0512 37.8103 16.0375 37.7759Z" fill="#FAB438"/>
<path id="Vector" d="M20.5841 16.2878H20.5507L20.2507 16.0545L20.0241 15.8679L19.8774 15.7679C19.2951 15.3093 18.6391 14.953 17.9374 14.7145L17.624 14.6345H17.5107L17.2107 14.5878C17.0562 14.5643 16.9003 14.551 16.744 14.5479C16.5589 14.5481 16.374 14.5615 16.1907 14.5878C16.0374 14.5878 15.8841 14.6412 15.7307 14.6745H15.6374L15.2507 14.7812L14.9374 14.8879L14.744 14.9612C14.5174 15.0545 14.284 15.1612 14.0374 15.2878C13.9163 15.3495 13.8004 15.4209 13.6907 15.5012C13.6029 15.5631 13.5204 15.6322 13.444 15.7078C13.3183 15.8322 13.2106 15.9736 13.124 16.1278C13.0693 16.2216 13.0225 16.3197 12.984 16.4212C12.4707 17.7545 13.3507 19.6612 15.0307 21.3412C17.0297 23.354 19.6434 24.6421 22.4574 25.0012H22.8574C23.0707 25.0012 23.2907 25.0012 23.5241 25.0012C24.8899 24.9849 26.2428 24.7346 27.5241 24.2612C24.5416 22.2692 22.1457 19.5165 20.5841 16.2878Z" fill="url(#paint1_linear_250_1072)"/>
</g>
<path id="Union_2" fill-rule="evenodd" clip-rule="evenodd" d="M59.3814 11.0021C61.0019 10.9701 62.609 11.2991 64.0835 11.9647C64.8735 12.3561 65.5755 12.9013 66.1475 13.5675C66.7195 14.2337 67.1496 15.0072 67.4122 15.8417C67.9402 17.4532 68.1923 19.1406 68.1579 20.8342C68.1947 22.5476 67.8855 24.251 67.2484 25.8447C66.5762 27.4306 65.3126 28.6998 63.7196 29.3889C62.435 29.9034 61.0581 30.1543 59.6725 30.1266C57.8561 30.172 56.0575 29.7636 54.443 28.9391C53.1649 28.2439 52.1594 27.1448 51.5872 25.8177C50.8894 24.1892 50.5544 22.4313 50.605 20.6633C50.605 17.0651 51.4417 14.4834 53.1333 12.9541C54.5703 11.6678 56.6439 11.0201 59.3814 11.0021ZM59.3814 14.1775C58.6534 14.1147 57.9218 14.2489 57.2649 14.5659C56.6081 14.8828 56.0507 15.3704 55.6526 15.9766C54.9402 17.3883 54.626 18.9639 54.7431 20.5373C54.7431 22.7502 55.116 24.3755 55.8618 25.4129C56.278 25.9392 56.8202 26.3546 57.4395 26.6216C58.0588 26.8886 58.7356 26.9988 59.4087 26.9421C60.0709 26.9936 60.7355 26.8778 61.34 26.6056C61.9445 26.3334 62.4692 25.9137 62.8648 25.3859C63.7103 23.9266 64.0966 22.251 63.9743 20.5734C64.0618 19.0221 63.7488 17.4743 63.0648 16.0756C62.6967 15.4519 62.1587 14.9432 61.5122 14.6076C60.8657 14.272 60.1368 14.1229 59.4087 14.1775H59.3814ZM70.75 16.2105H76.9981C77.9141 16.1841 78.83 16.2656 79.7265 16.4534C80.3985 16.6296 81.0208 16.9558 81.5455 17.4069C83.0916 18.6933 83.8737 20.6633 83.8737 23.326C83.9561 25.1175 83.3409 26.8721 82.1548 28.2285C81.6207 28.8318 80.9466 29.2979 80.1903 29.5868C79.3156 29.8952 78.3901 30.0386 77.4619 30.0096H74.3333V35.2001H70.7591L70.75 16.2105ZM74.3242 19.1611V27.0681H76.507C76.9618 27.108 77.4201 27.0586 77.8556 26.9228C78.291 26.7869 78.695 26.5673 79.0444 26.2765C79.7269 25.4118 80.1171 24.3565 80.1595 23.2603C80.2019 22.164 79.8946 21.0824 79.2809 20.1686C78.9632 19.8234 78.5708 19.5535 78.1331 19.379C77.6953 19.2046 77.2234 19.1301 76.7525 19.1611H74.3242ZM97.0703 24.5764V21.6259L89.5489 21.6439C89.5451 20.932 89.8001 20.2424 90.2674 19.7009C90.8685 19.2919 91.5969 19.107 92.3228 19.1791H97.0703V16.2286H92.0682C90.9926 16.1881 89.9204 16.3719 88.9214 16.7683C88.0776 17.1631 87.3647 17.787 86.866 18.5674C86.0147 19.8643 85.5774 21.3844 85.6109 22.9303C85.6109 25.497 86.4021 27.434 87.9846 28.7413C88.5246 29.1741 89.1415 29.5036 89.8036 29.7129C90.6243 29.9324 91.4729 30.0324 92.3228 30.0097H97.0703V27.0682H92.723C91.8994 27.1366 91.0756 26.9376 90.3766 26.5015C90.1118 26.2544 89.9016 25.9559 89.7591 25.6246C89.6167 25.2933 89.5451 24.9364 89.5489 24.5764H97.0703ZM99.9805 16.2105H106.865C107.658 16.1841 108.451 16.2659 109.221 16.4534C109.78 16.6325 110.288 16.9409 110.703 17.3529C111.198 17.9286 111.572 18.5954 111.805 19.3148C112.037 20.0343 112.123 20.7922 112.058 21.5448V30.0456H108.484V21.122C108.534 20.5947 108.381 20.0682 108.057 19.6468C107.865 19.481 107.641 19.3556 107.399 19.2783C107.156 19.2009 106.901 19.1733 106.647 19.197H103.555V30.0456H99.9805V16.2105ZM124.973 30.0006L132.758 11.1101H128.529L123.218 25.341L117.988 11.1101H113.686L121.18 30.0006H124.973ZM137.56 26.6723H149.192V30.0096H133.795V24.9991C133.643 23.2518 134.18 21.5141 135.296 20.1506C135.724 19.6911 136.266 19.3501 136.869 19.1611C137.742 18.9594 138.638 18.8747 139.534 18.9092H142.444C143.156 18.9601 143.869 18.8333 144.518 18.5404C144.832 18.3588 145.088 18.0943 145.258 17.7765C145.429 17.4586 145.506 17.1002 145.482 16.7413C145.506 16.3784 145.435 16.0155 145.275 15.6877C145.116 15.36 144.874 15.0784 144.572 14.8702C143.905 14.541 143.161 14.395 142.417 14.4475H134.04V11.1101H143.217C145.491 11.1101 147.073 11.5239 147.965 12.3335C148.519 12.8226 148.941 13.441 149.192 14.1326C149.478 14.9294 149.62 15.7699 149.611 16.6153C149.63 17.6088 149.451 18.5962 149.083 19.5209C148.797 20.2716 148.286 20.9181 147.619 21.3739C146.341 22.0477 144.899 22.3591 143.454 22.2735H140.943C140.278 22.2537 139.613 22.308 138.961 22.4355C138.569 22.5205 138.223 22.7445 137.988 23.0651C137.627 23.6403 137.468 24.3165 137.533 24.9901L137.56 26.6723ZM150.729 11.1101L156.605 20.4654L150.529 30.0096H155.077L158.915 23.5239L162.744 30.0096H167.2L161.17 20.4654L167.2 11.1101H162.653L158.86 17.344L155.368 11.1101H150.729Z" fill="#120400"/>
</g>
<defs>
<linearGradient id="paint0_linear_250_1072" x1="10.9999" y1="3.5" x2="34.4999" y2="30.5" gradientUnits="userSpaceOnUse">
<stop offset="0.370027" stop-color="#FC5834"/>
<stop offset="0.99639" stop-color="#FAB438"/>
</linearGradient>
<linearGradient id="paint1_linear_250_1072" x1="14.9999" y1="15" x2="26.4999" y2="24.5" gradientUnits="userSpaceOnUse">
<stop stop-color="#FCC8B4"/>
<stop offset="1" stop-color="#FC5834"/>
</linearGradient>
</defs>
</svg>
