<svg width="95" height="32" viewBox="0 0 95 32" fill="none" xmlns="http://www.w3.org/2000/svg">
<g id="Frame 675">
<g id="Group">
<path id="Vector" d="M21.8626 15.7898L20.9577 18.9274C20.8744 19.2164 20.5715 19.4505 20.2811 19.4505H17.7925C17.1337 19.4505 16.7528 18.9195 16.9417 18.2644L17.6554 15.7898C17.7387 15.5012 18.0416 15.2672 18.332 15.2672H21.4874C21.7778 15.2668 21.9459 15.5008 21.8626 15.7898ZM19.678 21.5419H17.1893C16.5305 21.5419 15.8437 22.0729 15.6548 22.728L14.9411 25.2025C14.8578 25.4912 15.0259 25.7252 15.3163 25.7252H18.4717C18.7621 25.7252 19.065 25.4912 19.1483 25.2025L20.0532 22.065C20.1361 21.776 19.9684 21.5419 19.678 21.5419ZM25.8207 19.4444H23.332C23.0416 19.4444 22.7387 19.6785 22.6554 19.9675L21.7505 23.1051C21.6673 23.3937 21.8354 23.6277 22.1258 23.6277H25.2808C25.5712 23.6277 25.8741 23.3937 25.9578 23.1051L26.6715 20.6305C26.8604 19.9754 26.4795 19.4444 25.8207 19.4444ZM17.8686 27.8167H14.7131C14.4227 27.8167 14.1199 28.0508 14.0366 28.3397L13.132 31.4773C13.0487 31.7659 13.2168 32 13.5069 32H16.6623C16.9527 32 17.2556 31.7659 17.3389 31.4773L18.2434 28.3397C18.3267 28.0508 18.159 27.8167 17.8686 27.8167ZM13.3035 19.4501C13.9623 19.4501 14.6495 18.9191 14.8381 18.264L15.5518 15.7895C15.6351 15.5008 15.4674 15.2668 15.1766 15.2668H12.0212C11.7308 15.2668 11.4279 15.5008 11.3446 15.7895L10.4397 18.927C10.3564 19.216 10.5245 19.4501 10.8149 19.4501H13.3035ZM12.7004 21.5419H10.2117C9.92134 21.5419 9.61844 21.776 9.53515 22.0646L8.63025 25.2022C8.54695 25.4908 8.71506 25.7249 9.00546 25.7249H12.1609C12.4513 25.7249 12.7542 25.4908 12.8375 25.2022L13.5512 22.7276C13.7401 22.0729 13.3592 21.5419 12.7004 21.5419ZM34.6077 13.1693H31.4523C31.1619 13.1693 30.859 13.4034 30.7753 13.692L30.0616 16.1665C29.8727 16.8216 30.2536 17.3526 30.9124 17.3526H33.401C33.6914 17.3526 33.9943 17.1185 34.0776 16.8295L34.9822 13.692C35.0662 13.4034 34.8981 13.1693 34.6077 13.1693ZM31.9184 7.12031C31.3713 7.12031 30.8382 7.17976 30.324 7.29002C28.4464 2.99985 24.1461 0 19.1403 0C12.407 0 6.9488 5.42773 6.9488 12.1228C6.9488 12.4826 6.96545 12.8385 6.9965 13.1907C3.0865 13.4654 0 16.7042 0 20.6618C0 21.8415 0.274874 22.9572 0.763293 23.9499C0.755342 23.8095 0.750417 23.6684 0.750417 23.5261C0.750417 19.6153 3.76423 16.4058 7.60836 16.0653C7.83136 16.0453 8.05702 16.0337 8.28532 16.0337C8.28532 16.0329 8.28532 16.0322 8.28532 16.0322C8.28532 15.073 8.39777 14.1409 8.60904 13.2468C9.87477 7.89398 14.7075 3.90861 20.4772 3.90861C23.9189 3.90861 27.027 5.32726 29.2442 7.608C29.8079 8.18787 30.3145 8.82381 30.7537 9.50604C30.8457 9.48196 30.9389 9.46089 31.032 9.44057C31.5591 9.32429 32.1065 9.26107 32.6688 9.26107C35.5539 9.26107 38.0588 10.8739 39.3249 13.2416C38.6771 9.75891 35.6088 7.12031 31.9184 7.12031ZM26.4238 17.3526C27.0826 17.3526 27.7698 16.8216 27.9588 16.1665L28.6725 13.692C28.7558 13.4034 28.5877 13.1693 28.2973 13.1693H25.1418C24.8514 13.1693 24.5485 13.4034 24.4652 13.692L23.5607 16.8295C23.4774 17.1185 23.6455 17.3526 23.9356 17.3526H26.4238ZM30.9885 25.7192H27.8331C27.5427 25.7192 27.2398 25.9533 27.1565 26.2423L26.252 29.3798C26.1687 29.6685 26.3364 29.9029 26.6268 29.9029H29.7822C30.0726 29.9029 30.3755 29.6688 30.4588 29.3798L31.3637 26.2423C31.447 25.9533 31.2789 25.7192 30.9885 25.7192ZM32.7983 19.4444H30.3096C29.6508 19.4444 28.9636 19.9754 28.7747 20.6305L28.061 23.1051C27.9777 23.3937 28.1458 23.6277 28.4362 23.6277H31.5912C31.8816 23.6277 32.1845 23.3937 32.2678 23.1051L33.1727 19.9675C33.2564 19.6785 33.0887 19.4444 32.7983 19.4444Z" fill="url(#paint0_linear_489_9934)"/>
<g id="Group_2">
<g id="Group_3">
<path id="Vector_2" d="M47.3995 22.4952L47.7959 22.5682L47.8667 21.451L47.5551 21.3938C43.8866 20.7142 41.9072 22.3308 41.9072 26.0204C41.9072 27.5587 42.2321 28.6827 42.8996 29.4582C43.5739 30.2409 44.6 30.6379 45.949 30.6379C46.4162 30.6379 46.9334 30.5909 47.4869 30.4975L47.8035 30.443L47.7338 29.3344L47.3472 29.3927C46.8452 29.4691 46.3882 29.5083 45.9872 29.5083C43.8844 29.5083 43.0268 28.4979 43.0268 26.0204C43.0279 22.9746 44.3781 21.9315 47.3995 22.4952Z" fill="#07203A"/>
<path id="Vector_3" d="M55.8582 21.0225H54.7383V30.7663H55.8582V21.0225Z" fill="#07203A"/>
<path id="Vector_4" d="M66.762 23.5895C65.4914 23.5376 64.4698 24.0557 64.0522 24.9901C63.5566 26.1675 63.557 28.2609 64.0522 29.3781C64.4123 30.2368 65.1911 30.6955 66.3671 30.7407C66.4239 30.7429 66.4811 30.7444 66.5379 30.7444C67.7597 30.7444 68.6846 30.23 69.0731 29.3359C69.6437 28.0738 69.5203 26.0862 69.0769 24.9649C68.718 24.1107 67.9176 23.6347 66.762 23.5895ZM65.0904 28.9262L65.0639 28.8697C64.7065 27.8883 64.7152 26.3327 65.0855 25.4401C65.366 24.8561 66.1183 24.6695 66.7313 24.7026C67.4314 24.7349 67.8471 24.9581 68.038 25.4048L68.0626 25.4589C68.4276 26.4652 68.42 27.9858 68.0436 28.8757C67.8131 29.3491 67.2474 29.6313 66.5307 29.6313L66.4228 29.6298V29.6294C65.7242 29.596 65.2755 29.3596 65.0904 28.9262Z" fill="#07203A"/>
<path id="Vector_5" d="M81.2826 28.9745C80.7439 29.1999 79.8806 29.5521 79.1476 29.5521C78.663 29.5521 78.2147 29.4144 78.2147 28.4108V23.5137H77.0947V28.4108C77.0947 29.8648 77.8239 30.666 79.1476 30.666C79.8723 30.666 80.6412 30.4274 81.2826 30.1824V30.8169H82.4026V23.5137H81.2826V28.9745Z" fill="#07203A"/>
<path id="Vector_6" d="M93.7709 21.085V23.6069C93.7573 23.6047 93.7437 23.6031 93.7297 23.6013L93.3136 23.5523C93.0235 23.5207 92.7229 23.488 92.395 23.488C91.6878 23.488 91.1653 23.6306 90.7488 23.9384C90.0347 24.4799 89.6084 25.6442 89.6084 27.0519C89.6084 28.0623 89.8685 29.4523 90.6235 30.0615C91.157 30.4284 91.8426 30.6151 92.6608 30.6151C93.0061 30.6151 93.3783 30.5906 93.7709 30.5428V30.5899H94.8913V21.085H93.7709V21.085ZM93.7709 24.7351V29.4109C93.4283 29.4576 93.0247 29.5016 92.6608 29.5016C92.0395 29.5016 91.5882 29.3895 91.2774 29.155C91.0131 28.9635 90.7291 28.2233 90.7291 27.0519C90.7291 26.539 90.7961 25.298 91.4189 24.8461L91.4227 24.8434C91.6386 24.6809 91.9562 24.6018 92.3954 24.6018C92.648 24.6018 92.9285 24.6327 93.2147 24.6647L93.4037 24.685C93.5366 24.7076 93.657 24.7238 93.7709 24.7351Z" fill="#07203A"/>
</g>
<g id="Group_4">
<g id="Group_5">
<path id="Vector_7" d="M93.734 1.66992H80.4619V3.51039H93.734V1.66992Z" fill="#09213C"/>
<path id="Vector_8" d="M80.2415 17.321L81.8779 9.14028H79.1973V7.2998H95.0001V9.14028H83.7256L82.4572 15.4805H90.9829C91.6069 15.4802 92.1142 14.9755 92.1142 14.3554V11.3898H93.9653V14.3554C93.9653 15.9904 92.6276 17.321 90.9829 17.321H80.2415Z" fill="#09213C"/>
</g>
<g id="Group_6">
<path id="Vector_9" d="M57.132 17.3199C55.5005 17.3199 54.1633 15.9998 54.1508 14.3772L54.1496 14.358L54.1508 14.3309V6.32744H54.1458C54.0932 5.61397 53.4923 5.04915 52.7616 5.04915H48.3367L48.3208 5.13231C47.3004 10.4942 45.8711 14.0103 43.5415 16.8909L43.2283 17.2777L41.7998 16.1116L42.1091 15.7319C44.176 13.1971 45.4656 10.0385 46.4216 5.1707L46.4455 5.04878H42.3215V3.20831H46.7726L46.7934 3.0909L47.052 1.17969H48.911C48.8683 1.54959 48.7323 2.71385 48.6755 3.05666L48.6502 3.20831H52.7612C54.5339 3.20831 55.9863 4.64238 55.9992 6.40571L56.0003 6.43054L55.9992 6.4535V14.4434L56.0045 14.4442C56.0484 14.983 56.4789 15.4184 57.0184 15.4726V15.4783L57.1214 15.479H58.0573V17.3195H57.132V17.3199Z" fill="#09213C"/>
</g>
<path id="Vector_10" d="M76.5127 17.3202V1.17969L74.6749 1.17969V17.3202H76.5127Z" fill="#09213C"/>
<path id="Vector_11" d="M70.8066 16.7799V1.71484L68.9688 1.71484V16.7799H70.8066Z" fill="#09213C"/>
<path id="Vector_12" d="M67.9111 10.6439V4.75488H66.0733V10.6439H67.9111Z" fill="#09213C"/>
<path id="Vector_13" d="M62.3516 10.6439V4.75488H60.5137V10.6439H62.3516Z" fill="#09213C"/>
<path id="Vector_14" d="M60.5811 15.9247L60.9676 15.5815C62.289 14.4059 62.866 13.3395 63.0966 11.6465L63.1095 11.5513C63.1837 10.959 63.2208 10.2569 63.2208 9.40304V1.32129H65.0605V9.40304C65.0605 12.7163 64.6145 14.7901 62.1766 16.932L61.79 17.2718L60.5811 15.9247Z" fill="#09213C"/>
<path id="Vector_15" d="M73.6797 10.6439V4.75488H71.8415V10.6439H73.6797Z" fill="#09213C"/>
</g>
</g>
</g>
</g>
<defs>
<linearGradient id="paint0_linear_489_9934" x1="-0.000272606" y1="16" x2="39.3253" y2="16" gradientUnits="userSpaceOnUse">
<stop stop-color="#3B82C5"/>
<stop offset="1" stop-color="#2DB3E9"/>
</linearGradient>
</defs>
</svg>
