<svg width="180" height="180" viewBox="0 0 180 180" fill="none" xmlns="http://www.w3.org/2000/svg">
<g id="Group 679">
<rect id="&#229;&#141;&#143;&#228;&#188;&#154;QR 3" width="180" height="180" rx="8" fill="url(#paint0_linear_517_7687)"/>
<g id="Frame 689">
<g id="vuesax/twotone/sms">
<g id="vuesax/twotone/sms_2">
<g id="sms">
<path id="Vector" d="M79.1663 93.7913C76.1654 93.7913 73.9129 93.0409 72.4179 91.6526C70.9447 90.2846 69.958 88.065 69.958 84.583V69.4163C69.958 65.9344 70.9447 63.7147 72.4179 62.3467C73.9129 60.9585 76.1654 60.208 79.1663 60.208H100.833C103.834 60.208 106.086 60.9585 107.581 62.3467C109.055 63.7147 110.041 65.9344 110.041 69.4163V84.583C110.041 88.065 109.055 90.2846 107.581 91.6526C106.086 93.0409 103.834 93.7913 100.833 93.7913H79.1663Z" stroke="white" stroke-width="3.25"/>
<path id="Vector_2" d="M100.834 70.5L94.052 75.9167C91.8203 77.6933 88.1586 77.6933 85.927 75.9167L79.167 70.5" stroke="white" stroke-width="3.25" stroke-linecap="round" stroke-linejoin="round"/>
</g>
</g>
</g>
<path id="&#231;&#171;&#139;&#229;&#141;&#179;&#232;&#129;&#148;&#231;&#179;&#187;" d="M56.328 113.504H62.472C62.216 112.64 61.944 111.856 61.656 111.152L62.984 110.928C63.2187 111.611 63.464 112.469 63.72 113.504H69.72V114.624H56.328V113.504ZM55.784 123.552H63.72C64.68 121.451 65.5333 118.784 66.28 115.552L67.496 115.872C66.8347 118.773 66.0133 121.333 65.032 123.552H70.264V124.672H55.784V123.552ZM59.768 115.616C60.4827 117.707 61.1067 120.085 61.64 122.752L60.408 123.056C59.9387 120.688 59.3253 118.341 58.568 116.016L59.768 115.616ZM75.704 115.744V117.952H79.496V115.744H75.704ZM79.496 114.704V112.608H75.704V114.704H79.496ZM74.04 124.016C74.392 123.888 74.568 123.68 74.568 123.392V111.568H80.584V119.024H75.704V123.632C77.208 123.184 78.456 122.757 79.448 122.352C79.1387 121.787 78.808 121.237 78.456 120.704L79.336 120.144C80.3387 121.68 81.1067 123.035 81.64 124.208L80.76 124.848C80.536 124.347 80.28 123.835 79.992 123.312C78.3493 124.005 76.4987 124.608 74.44 125.12L74.04 124.016ZM84.808 123.392L84.504 122.272L85.88 122.304C86.3173 122.304 86.536 122.085 86.536 121.648V112.656H83.624V125.552H82.472V111.568H87.688V121.904C87.688 122.896 87.2133 123.392 86.264 123.392H84.808ZM98.36 114.416H102.344C102.963 113.317 103.485 112.165 103.912 110.96L104.968 111.36C104.477 112.597 103.987 113.616 103.496 114.416H105.88V115.504H102.6V115.984C102.6 116.731 102.557 117.488 102.472 118.256H106.152V119.36H102.84C103.224 121.12 104.408 122.912 106.392 124.736L105.592 125.584C103.757 123.76 102.605 121.957 102.136 120.176C101.517 122.64 100.291 124.464 98.456 125.648L97.768 124.736C99.5707 123.648 100.717 121.856 101.208 119.36H98.12V118.256H101.368C101.443 117.552 101.485 116.88 101.496 116.24V115.504H98.36V114.416ZM99.944 111.056C100.584 111.995 101.08 112.827 101.432 113.552L100.568 114.144C100.205 113.387 99.704 112.544 99.064 111.616L99.944 111.056ZM91.736 111.584H98.104V112.656H97.064V121.44C97.3093 121.355 97.6667 121.237 98.136 121.088V122.208C97.7307 122.336 97.3733 122.443 97.064 122.528V125.68H95.96V122.832C94.4773 123.205 93.1547 123.499 91.992 123.712L91.704 122.624L92.712 122.464V112.656H91.736V111.584ZM93.816 122.256C94.6373 122.075 95.352 121.909 95.96 121.76V119.392H93.816V122.256ZM93.816 118.336H95.96V116.048H93.816V118.336ZM93.816 115.008H95.96V112.656H93.816V115.008ZM114.616 125.552L114.36 124.416C115 124.469 115.549 124.496 116.008 124.496C116.403 124.496 116.6 124.299 116.6 123.904V119.984C114.755 120.101 113.085 120.192 111.592 120.256L111.272 119.232C111.592 119.2 111.928 119.131 112.28 119.024C113.592 118.448 115.064 117.552 116.696 116.336C115.576 116.421 114.077 116.523 112.2 116.64L111.96 115.616C112.205 115.584 112.467 115.515 112.744 115.408C113.555 115.003 114.499 114.213 115.576 113.04C114.221 113.104 112.776 113.136 111.24 113.136L110.904 112.128C115.501 112.128 119.32 111.792 122.36 111.12L122.92 112.096C121.213 112.491 119.251 112.773 117.032 112.944C116.061 114.075 115.053 114.981 114.008 115.664C115.139 115.611 116.435 115.52 117.896 115.392C118.515 114.901 119.256 114.267 120.12 113.488L121.176 114.016C118.477 116.395 116.12 118.112 114.104 119.168C116.803 119.019 119.037 118.837 120.808 118.624C120.296 117.963 119.88 117.445 119.56 117.072L120.424 116.544C121.747 118.091 122.755 119.424 123.448 120.544L122.52 121.2C122.253 120.731 121.907 120.181 121.48 119.552C120.52 119.659 119.283 119.776 117.768 119.904V124.192C117.768 125.099 117.315 125.552 116.408 125.552H114.616ZM119.96 120.88C121.571 122.043 122.92 123.216 124.008 124.4L123.192 125.216C122.211 124.085 120.877 122.885 119.192 121.616L119.96 120.88ZM114.68 121.712C113.603 123.013 112.259 124.155 110.648 125.136L109.928 124.208C111.496 123.28 112.808 122.208 113.864 120.992L114.68 121.712Z" fill="white"/>
</g>
</g>
<defs>
<linearGradient id="paint0_linear_517_7687" x1="46.145" y1="-7.54479" x2="197.133" y2="118.768" gradientUnits="userSpaceOnUse">
<stop offset="0.370027" stop-color="#FC5834"/>
<stop offset="0.99639" stop-color="#FAB438"/>
</linearGradient>
</defs>
</svg>
