<svg fill="none" height="68" viewBox="0 0 68 68" width="68" xmlns="http://www.w3.org/2000/svg"><g stroke="#120400"><g stroke-width="4.25"><path d="m25.1318 13.0332c1.3317 5.7516-2.3233 10.625-5.4967 13.6566-2.3233 2.21-5.9783 2.1817-8.3016 0-3.14502-3.0316-6.80002-7.905-5.46835-13.6566 2.26666-9.80337 17.02835-9.80337 19.26665 0z"/><path d="m62.0783 47.0332c1.3317 5.7516-2.3233 10.625-5.525 13.6566-2.3233 2.21-6.0066 2.1817-8.33 0-3.2016-3.0316-6.8566-7.905-5.525-13.6566 2.2667-9.8034 17.1133-9.8034 19.38 0z"/><path d="m33.9992 14.167h7.5933c5.2417 0 7.6783 6.4883 3.74 9.945l-22.6383 19.805c-3.9384 3.4283-1.5017 9.9167 3.7116 9.9167h7.5934" stroke-linecap="round" stroke-linejoin="round"/></g><path d="m15.5429 15.5837h.0327" stroke-linecap="round" stroke-linejoin="round" stroke-width="5.66667"/><path d="m52.3762 49.5837h.0328" stroke-linecap="round" stroke-linejoin="round" stroke-width="5.66667"/></g></svg>