<svg width="68" height="68" viewBox="0 0 68 68" fill="none" xmlns="http://www.w3.org/2000/svg">
<g id="vuesax/twotone/smart-car">
<g id="vuesax/twotone/smart-car_2">
<g id="smart-car">
<g id="Group">
<path id="Vector" d="M19.4643 21.5908C14.1943 21.5908 13.0043 24.2259 12.3526 27.4842L9.94427 38.9592H43.9443L41.536 27.4842C40.8276 24.2259 39.666 21.5908 34.396 21.5908H19.4643Z" stroke="#120400" stroke-width="4.25" stroke-linecap="round" stroke-linejoin="round"/>
<g id="Group_2">
<path id="Vector_2" d="M43.832 62.334H39.837C37.542 62.334 37.2303 61.3423 36.8053 60.1523L36.3803 58.8774C35.7853 57.1491 35.3886 55.959 32.3286 55.959H21.4487C18.3887 55.959 17.9353 57.2908 17.397 58.8774L16.972 60.1523C16.5753 61.3706 16.2636 62.334 13.9403 62.334H9.94529C7.39529 62.334 5.38366 60.1806 5.63866 57.6873L6.82865 44.739C7.14032 41.5373 7.7353 38.9307 13.317 38.9307H40.432C46.0136 38.9307 46.6086 41.5373 46.9203 44.739L48.1387 57.6873C48.3653 60.1806 46.382 62.334 43.832 62.334Z" stroke="#120400" stroke-width="4.25" stroke-linecap="round" stroke-linejoin="round"/>
</g>
<path id="Vector_3" d="M9.91663 32.584H7.79163" stroke="#120400" stroke-width="4.25" stroke-linecap="round" stroke-linejoin="round"/>
<path id="Vector_4" d="M46.0416 32.584H43.9166" stroke="#120400" stroke-width="4.25" stroke-linecap="round" stroke-linejoin="round"/>
<path id="Vector_5" d="M14.1666 47.459H20.5416" stroke="#120400" stroke-width="4.25" stroke-linecap="round" stroke-linejoin="round"/>
<path id="Vector_6" d="M33.2916 47.459H39.6666" stroke="#120400" stroke-width="4.25" stroke-linecap="round" stroke-linejoin="round"/>
</g>
<path id="Vector_7" d="M53.0092 24.7638C53.8026 22.9221 53.5192 20.4288 52.0459 18.2472C50.6009 16.0655 48.3909 14.8472 46.3792 14.8755" stroke="#120400" stroke-width="4.25" stroke-linecap="round" stroke-linejoin="round"/>
<path id="Vector_8" d="M61.8251 27.5686C63.0151 23.2903 62.1651 18.0487 59.1334 13.5154C56.1018 8.98205 51.5684 6.20533 47.1484 5.66699" stroke="#120400" stroke-width="4.25" stroke-linecap="round" stroke-linejoin="round"/>
</g>
</g>
</g>
</svg>
