<svg width="68" height="68" viewBox="0 0 68 68" fill="none" xmlns="http://www.w3.org/2000/svg">
<g id="vuesax/twotone/shield-tick">
<g id="vuesax/twotone/shield-tick_2">
<g id="shield-tick">
<path id="Vector" d="M15.5838 11.6465C12.3254 12.8649 9.66211 16.7182 9.66211 20.1749V41.2265C9.66211 44.5699 11.8721 48.9615 14.5638 50.9732L26.7471 60.0682C30.7421 63.0716 37.3154 63.0716 41.3104 60.0682L53.4938 50.9732C56.1854 48.9615 58.3954 44.5699 58.3954 41.2265V20.1749C58.3954 16.6899 55.7321 12.8365 52.4738 11.6182L38.3354 6.31988C35.9271 5.44155 32.0738 5.44155 29.7221 6.31988L15.5838 11.6465Z" stroke="url(#paint0_linear_278_611)" stroke-width="4.25"/>
<path id="Vector_2" d="M25.6439 33.6305L30.2056 38.1921L42.3889 26.0088" stroke="url(#paint1_linear_278_611)" stroke-width="4.25" stroke-linecap="round"/>
</g>
</g>
</g>
<defs>
<linearGradient id="paint0_linear_278_611" x1="9.66211" y1="5.66113" x2="65.6086" y2="14.0153" gradientUnits="userSpaceOnUse">
<stop stop-color="#FC5834"/>
<stop offset="1" stop-color="#FAB438"/>
</linearGradient>
<linearGradient id="paint1_linear_278_611" x1="25.6439" y1="26.0088" x2="44.2374" y2="30.4455" gradientUnits="userSpaceOnUse">
<stop stop-color="#FC5834"/>
<stop offset="1" stop-color="#FAB438"/>
</linearGradient>
</defs>
</svg>
