<svg width="68" height="68" viewBox="0 0 68 68" fill="none" xmlns="http://www.w3.org/2000/svg">
<g id="vuesax/twotone/shield-tick">
<g id="vuesax/twotone/shield-tick_2">
<g id="shield-tick">
<path id="Vector" d="M15.5838 11.6465C12.3254 12.8649 9.66211 16.7182 9.66211 20.1749V41.2265C9.66211 44.5699 11.8721 48.9615 14.5638 50.9732L26.7471 60.0682C30.7421 63.0716 37.3154 63.0716 41.3104 60.0682L53.4938 50.9732C56.1854 48.9615 58.3954 44.5699 58.3954 41.2265V20.1749C58.3954 16.6899 55.7321 12.8365 52.4738 11.6182L38.3354 6.31988C35.9271 5.44155 32.0738 5.44155 29.7221 6.31988L15.5838 11.6465Z" stroke="#120400" stroke-width="4.25"/>
<path id="Vector_2" d="M27.1465 32.1279C26.3166 31.298 24.9711 31.298 24.1413 32.1279C23.3114 32.9577 23.3114 34.3032 24.1413 35.1331L27.1465 32.1279ZM30.2055 38.1921L28.7029 39.6947L30.2055 41.1973L31.7081 39.6947L30.2055 38.1921ZM43.8915 27.5114C44.7213 26.6815 44.7213 25.3361 43.8915 24.5062C43.0616 23.6763 41.7161 23.6763 40.8863 24.5062L43.8915 27.5114ZM24.1413 35.1331L28.7029 39.6947L31.7081 36.6895L27.1465 32.1279L24.1413 35.1331ZM31.7081 39.6947L43.8915 27.5114L40.8863 24.5062L28.7029 36.6895L31.7081 39.6947Z" fill="#120400"/>
</g>
</g>
</g>
</svg>
