<svg width="40" height="40" viewBox="0 0 40 40" fill="none" xmlns="http://www.w3.org/2000/svg">
<g id="vuesax/bulk/profile-circle">
<g id="vuesax/bulk/profile-circle_2">
<g id="profile-circle">
<path id="Vector" fill-rule="evenodd" clip-rule="evenodd" d="M19.9999 36.6829C10.7952 36.6829 3.33325 29.221 3.33325 20.0163C3.33325 10.8115 10.7952 3.34961 19.9999 3.34961C29.2047 3.34961 36.6666 10.8115 36.6666 20.0163C36.6666 29.221 29.2047 36.6829 19.9999 36.6829Z" fill="white" stroke="#FC5834"/>
<path id="Vector_2" d="M13.75 17.8154C13.75 21.1988 16.4 23.9488 19.9167 24.0488C19.9667 24.0488 20.0333 24.0488 20.0667 24.0488C20.1 24.0488 20.15 24.0488 20.1833 24.0488C20.2 24.0488 20.2167 24.0488 20.2167 24.0488C23.5833 23.9321 26.2333 21.1988 26.25 17.8154C26.25 14.3654 23.45 11.5654 20 11.5654C16.55 11.5654 13.75 14.3654 13.75 17.8154Z" fill="#FC5834"/>
<path id="Vector_3" d="M20.0012 36.6837C15.6345 36.6837 11.6678 35.0004 8.70117 32.2671C9.10117 30.7504 10.1845 29.3671 11.7678 28.3004C16.3178 25.2671 23.7178 25.2671 28.2345 28.3004C29.8345 29.3671 30.9012 30.7504 31.3012 32.2671C28.3345 35.0004 24.3678 36.6837 20.0012 36.6837Z" fill="#FC5834"/>
</g>
</g>
</g>
</svg>
